# xmcd
#
# Track frame offsets:
#	150
#	19733
#	36565
#	60505
#	81813
#	100673
#	120755
#	132765
#	149163
#	164078
#
# Disc length: 2411 seconds
# Revision: 0
# Processed by: cddbd v1.5.2PL0 Copyright (c) Steve Scherf et al.
# Submitted via: dBpowerAMP V12.0
#
DISCID=8509690a
DTITLE=Mary Coughlan - Uncertain Pleasures
DYEAR=1990
DGENRE=Blues
TTITLE0=Man Of The World
TTITLE1=I Can Dream, Can't I?
TTITLE2=Whisky Didn't Kill The Pain
TTITLE3=A Leaf From A Tree
TTITLE4=The Little Death
TTITLE5=Invisible To You
TTITLE6=I Get Along Without You Very Well
TTITLE7=Heartbreak Hotel
TTITLE8=Red Ribbon
TTITLE9=Mother's Little Helper
EXTD=
EXTT0=
EXTT1=
EXTT2=
EXTT3=
EXTT4=
EXTT5=
EXTT6=
EXTT7=
EXTT8=
EXTT9=
PLAYORDER=
